<svg width="64" height="64" viewBox="0 0 64 64" fill="none" xmlns="http://www.w3.org/2000/svg">
<rect width="64" height="64" fill="none"/>
<path d="M32 8C34.209 1 36.418 8 38.627 8C40.836 8 42.045 9.209 42.045 11.418C42.045 13.627 40.836 14.836 38.627 14.836C36.418 14.836 34.209 13.627 32 11.418C29.791 13.627 27.582 14.836 25.373 14.836C23.164 14.836 21.955 13.627 21.955 11.418C21.955 9.209 23.164 8 25.373 8C27.582 8 29.791 8 32 8ZM32 56C34.209 49 36.418 56 38.627 56C40.836 56 42.045 57.209 42.045 59.418C42.045 61.627 40.836 62.836 38.627 62.836C36.418 62.836 34.209 61.627 32 59.418C29.791 61.627 27.582 62.836 25.373 62.836C23.164 62.836 21.955 61.627 21.955 59.418C21.955 57.209 23.164 56 25.373 56C27.582 56 29.791 49 32 56ZM32 32C34.209 25 36.418 32 38.627 32C40.836 32 42.045 33.209 42.045 35.418C42.045 37.627 40.836 38.836 38.627 38.836C36.418 38.836 34.209 37.627 32 35.418C29.791 37.627 27.582 38.836 25.373 38.836C23.164 38.836 21.955 37.627 21.955 35.418C21.955 33.209 23.164 32 25.373 32C27.582 32 29.791 25 32 32Z" fill="#ff3b3b"/>
</svg>
